<svg width="26" height="24" viewBox="0 0 26 24" fill="none" xmlns="http://www.w3.org/2000/svg">
<path d="M25.4299 4.93962C24.9372 4.32216 24.1707 3.94632 23.3769 3.94632H6.70649L6.18639 1.95974C5.88528 0.805372 4.84509 0 3.64066 0H0.848576C0.383228 0 0 0.37584 0 0.832218C0 1.2886 0.383228 1.66444 0.848576 1.66444H3.64066C4.05126 1.66444 4.40712 1.93289 4.51661 2.33558L7.85617 15.3826C8.15728 16.537 9.19747 17.3423 10.4019 17.3423H21.3239C22.5283 17.3423 23.5959 16.537 23.8696 15.3826L25.9226 7.11412C26.1142 6.36244 25.95 5.55707 25.4299 4.93962ZM24.2528 6.73828L22.1998 15.0068C22.0903 15.4095 21.7345 15.6779 21.3239 15.6779H10.4019C9.99129 15.6779 9.63544 15.4095 9.52595 15.0068L7.14446 5.63761H23.3769C23.6506 5.63761 23.9244 5.77183 24.0886 5.9866C24.2528 6.20137 24.335 6.46982 24.2528 6.73828Z" fill="white"/>
<path d="M10.9767 18.416C9.41643 18.416 8.12988 19.6778 8.12988 21.208C8.12988 22.7382 9.41643 23.9999 10.9767 23.9999C12.537 23.9999 13.8236 22.7382 13.8236 21.208C13.8236 19.6778 12.537 18.416 10.9767 18.416ZM10.9767 22.3086C10.3471 22.3086 9.85441 21.8254 9.85441 21.208C9.85441 20.5905 10.3471 20.1073 10.9767 20.1073C11.6063 20.1073 12.099 20.5905 12.099 21.208C12.099 21.7986 11.5789 22.3086 10.9767 22.3086Z" fill="white"/>
<path d="M20.3927 18.416C18.8324 18.416 17.5459 19.6778 17.5459 21.208C17.5459 22.7382 18.8324 23.9999 20.3927 23.9999C21.953 23.9999 23.2396 22.7382 23.2396 21.208C23.2122 19.6778 21.953 18.416 20.3927 18.416ZM20.3927 22.3086C19.7631 22.3086 19.2704 21.8254 19.2704 21.208C19.2704 20.5905 19.7631 20.1073 20.3927 20.1073C21.0223 20.1073 21.515 20.5905 21.515 21.208C21.515 21.7986 20.9949 22.3086 20.3927 22.3086Z" fill="white"/>
</svg>
